<svg width="61" height="66" viewBox="0 0 61 66" fill="none" xmlns="http://www.w3.org/2000/svg">
<path d="M1 65V6H60V65H1Z" stroke="white" stroke-width="2"/>
<path d="M12.3067 54.68C9.22672 54.68 7.68672 53.82 7.68672 52.1C7.68672 50.18 8.96672 49.22 11.5267 49.22C12.7267 49.22 15.5867 49.92 20.1067 51.32C21.1867 50.4 22.2467 49.28 23.2867 47.96C24.3667 46.6 25.3867 45 26.3467 43.16C27.1467 41.64 27.9067 40.1 28.6267 38.54C29.3467 36.94 30.0867 35.36 30.8467 33.8C34.2467 26.8 38.1467 21.8 42.5467 18.8C41.3067 18.44 39.8867 18.16 38.2867 17.96C36.7267 17.76 35.0067 17.66 33.1267 17.66C31.0467 17.66 29.0867 17.84 27.2467 18.2C25.4067 18.52 23.6667 19.02 22.0267 19.7C18.1467 21.26 15.2667 23.6 13.3867 26.72C12.2267 28.68 11.6467 30.62 11.6467 32.54C11.6467 34.58 12.2867 36.28 13.5667 37.64C14.8467 39.04 16.5067 39.74 18.5467 39.74C20.8267 39.74 22.8467 38.92 24.6067 37.28C26.3667 35.6 27.2467 33.64 27.2467 31.4C27.2467 29.84 26.8267 28.56 25.9867 27.56C25.1067 26.52 23.8867 26 22.3267 26C21.1667 26 20.1267 26.36 19.2067 27.08C18.2867 27.88 17.8267 28.88 17.8267 30.08C17.8267 31.04 18.3467 31.52 19.3867 31.52C19.4667 31.52 19.5267 31.46 19.5667 31.34C19.6867 31.22 19.7867 31.16 19.8667 31.16C19.9467 31.2 19.9867 31.26 19.9867 31.34C19.9867 31.74 19.7667 31.94 19.3267 31.94C17.9667 31.94 17.2867 31.3 17.2867 30.02C17.2867 28.74 17.8667 27.62 19.0267 26.66C20.1467 25.74 21.3467 25.28 22.6267 25.28C24.3467 25.28 25.7467 25.84 26.8267 26.96C27.9467 28.08 28.5067 29.5 28.5067 31.22C28.5067 33.86 27.4667 36.08 25.3867 37.88C23.4267 39.56 21.1067 40.4 18.4267 40.4C15.9067 40.4 13.8467 39.66 12.2467 38.18C10.5267 36.58 9.66672 34.6 9.66672 32.24C9.66672 30.56 10.0867 28.92 10.9267 27.32C12.7667 23.68 16.0067 20.96 20.6467 19.16C24.4467 17.68 28.7667 16.94 33.6067 16.94C37.4067 16.94 40.7467 17.34 43.6267 18.14C44.9067 17.42 46.1267 16.88 47.2867 16.52C48.4467 16.12 49.5867 15.92 50.7067 15.92C51.0267 15.92 51.1867 15.96 51.1867 16.04C51.1867 16.16 51.1267 16.22 51.0067 16.22C50.8467 16.22 50.6267 16.24 50.3467 16.28C50.1067 16.28 49.8267 16.3 49.5067 16.34C47.7467 16.5 46.0267 17.18 44.3467 18.38C48.5467 19.74 50.6467 22.04 50.6467 25.28C50.6467 25.64 50.6067 26 50.5267 26.36C50.4867 26.68 50.4267 27 50.3467 27.32C49.8667 29.36 47.9467 31.02 44.5867 32.3C42.1867 33.14 39.4867 33.68 36.4867 33.92H38.3467C45.4267 33.92 48.9667 36.34 48.9667 41.18C48.9667 43.94 47.9067 46.38 45.7867 48.5C43.9467 50.34 41.5867 51.72 38.7067 52.64C37.5467 53.04 36.3267 53.32 35.0467 53.48C33.7667 53.68 32.4467 53.78 31.0867 53.78C29.4467 53.78 27.7467 53.64 25.9867 53.36C24.2667 53.08 22.5067 52.64 20.7067 52.04C17.5067 53.8 14.7067 54.68 12.3067 54.68ZM33.8467 33.74C42.3267 32.94 46.9467 30.78 47.7067 27.26C47.8667 26.5 47.9467 25.74 47.9467 24.98C47.9467 22.18 46.4467 20.22 43.4467 19.1C39.9667 22.02 36.7667 26.9 33.8467 33.74ZM28.9267 52.94C33.0467 52.94 36.7067 51.96 39.9067 50C43.7867 47.72 45.7267 44.7 45.7267 40.94C45.7267 36.42 42.4267 34.16 35.8267 34.16C35.4267 34.16 35.0467 34.18 34.6867 34.22C34.3267 34.22 33.9867 34.24 33.6667 34.28C31.7067 38.88 30.1467 42.14 28.9867 44.06C26.9867 47.26 24.4267 49.8 21.3067 51.68C24.0667 52.52 26.6067 52.94 28.9267 52.94ZM12.7267 54.2C15.1267 54.2 17.4267 53.38 19.6267 51.74C17.9067 51.14 16.3867 50.7 15.0667 50.42C13.7867 50.14 12.7467 50 11.9467 50C9.50672 50 8.28672 50.72 8.28672 52.16C8.28672 53.52 9.76672 54.2 12.7267 54.2Z" fill="white"/>
</svg>
